<?xml version="1.0" standalone="no"?>
<!DOCTYPE svg PUBLIC "-//W3C//DTD SVG 20010904//EN"
 "http://www.w3.org/TR/2001/REC-SVG-20010904/DTD/svg10.dtd">
<svg version="1.0" xmlns="http://www.w3.org/2000/svg"
 width="256.000000pt" height="256.000000pt" viewBox="0 0 256.000000 256.000000"
 preserveAspectRatio="xMidYMid meet">
<metadata>
Created by potrace 1.11, written by Peter Selinger 2001-2013
</metadata>
<g transform="translate(0.000000,256.000000) scale(0.100000,-0.100000)"
fill="#000000" stroke="none">
<path d="M848 2276 c-83 -29 -142 -96 -154 -172 l-6 -44 -212 -1 c-116 0 -224
-3 -240 -5 -80 -13 -165 -79 -206 -161 l-25 -48 0 -680 0 -680 23 -47 c28 -56
88 -112 151 -142 l46 -21 1060 0 1060 0 45 24 c61 32 107 76 138 136 l27 50 3
665 c3 752 5 721 -74 809 -25 27 -66 60 -92 73 -44 22 -60 23 -284 26 l-236 4
-7 36 c-16 85 -63 142 -142 172 -47 18 -81 19 -444 19 -301 0 -403 -3 -431
-13z m858 -139 c22 -20 27 -34 34 -102 6 -58 12 -82 26 -92 14 -10 78 -13 276
-13 282 0 302 -3 352 -56 14 -16 29 -45 33 -64 3 -19 6 -312 6 -650 0 -457 -3
-625 -12 -652 -17 -51 -70 -95 -123 -102 -24 -3 -498 -5 -1054 -3 l-1011 2
-37 29 c-69 52 -67 25 -64 745 3 638 3 650 24 677 51 69 47 68 356 74 262 5
281 6 294 24 13 18 19 47 15 70 -6 30 14 92 37 113 l25 23 399 0 398 -1 26
-22z"/>
<path d="M1178 1754 c-299 -52 -505 -308 -493 -614 10 -242 161 -449 390 -536
86 -32 242 -44 326 -24 292 68 482 310 474 601 -10 365 -338 635 -697 573z
m185 -134 c169 -31 315 -161 362 -325 33 -113 21 -247 -33 -351 -61 -118 -187
-208 -337 -240 -28 -6 -112 -6 -158 1 -55 7 -175 66 -226 111 -273 238 -163
706 186 794 81 21 130 23 206 10z"/>
<path d="M2107 1755 c-44 -15 -64 -37 -72 -80 -21 -108 80 -181 172 -125 39
23 55 52 55 95 0 85 -76 138 -155 110z"/>
</g>
</svg>
